<?xml version="1.0" encoding="UTF-8" standalone="no"?>
<!-- Created with Inkscape (http://www.inkscape.org/) -->

<svg
   width="28"
   height="28"
   viewBox="0 0 7.4083332 7.4083335"
   version="1.1"
   id="svg8"
   inkscape:version="1.2 (dc2aedaf03, 2022-05-15)"
   sodipodi:docname="file.svg"
   xmlns:inkscape="http://www.inkscape.org/namespaces/inkscape"
   xmlns:sodipodi="http://sodipodi.sourceforge.net/DTD/sodipodi-0.dtd"
   xmlns="http://www.w3.org/2000/svg"
   xmlns:svg="http://www.w3.org/2000/svg"
   xmlns:rdf="http://www.w3.org/1999/02/22-rdf-syntax-ns#"
   xmlns:cc="http://creativecommons.org/ns#"
   xmlns:dc="http://purl.org/dc/elements/1.1/">
  <defs
     id="defs2" />
  <sodipodi:namedview
     id="base"
     pagecolor="#ffffff"
     bordercolor="#666666"
     borderopacity="1.0"
     inkscape:pageopacity="0.0"
     inkscape:pageshadow="2"
     inkscape:zoom="12.534729"
     inkscape:cx="27.762866"
     inkscape:cy="18.508577"
     inkscape:document-units="px"
     inkscape:current-layer="layer1"
     showgrid="false"
     units="px"
     inkscape:window-width="1920"
     inkscape:window-height="1019"
     inkscape:window-x="0"
     inkscape:window-y="32"
     inkscape:window-maximized="1"
     inkscape:showpageshadow="2"
     inkscape:pagecheckerboard="0"
     inkscape:deskcolor="#d1d1d1" />
  <metadata
     id="metadata5">
    <rdf:RDF>
      <cc:Work
         rdf:about="">
        <dc:format>image/svg+xml</dc:format>
        <dc:type
           rdf:resource="http://purl.org/dc/dcmitype/StillImage" />
        <dc:title />
      </cc:Work>
    </rdf:RDF>
  </metadata>
  <g
     inkscape:label="Layer 1"
     inkscape:groupmode="layer"
     id="layer1"
     transform="translate(0,-289.59165)">
    <path
       style="opacity:1;fill:#6e9051;fill-opacity:1;stroke:none;stroke-width:1;stroke-miterlimit:4;stroke-dasharray:0.50000005, 0.50000005;stroke-dashoffset:0;stroke-opacity:1"
       d="M 6 6 L 6 8 L 7 8 L 7 7 L 21 7 L 21 8 L 22 8 L 22 6 L 6 6 z "
       transform="matrix(0.26458333,0,0,0.26458333,0,289.59165)"
       id="rect860-7" />
    <path
       style="opacity:1;fill:#6e9051;fill-opacity:1;stroke:none;stroke-width:1;stroke-miterlimit:4;stroke-dasharray:0.50000009, 0.50000009;stroke-dashoffset:0;stroke-opacity:1"
       d="M 6 8 L 6 22 L 22 22 L 22 8 L 16 8 L 16 9 L 21 9 L 21 21 L 7 21 L 7 9 L 12 9 L 12 8 L 6 8 z "
       transform="matrix(0.26458333,0,0,0.26458333,0,289.59165)"
       id="rect860" />
    <path
       style="opacity:1;fill:#6e9051;fill-opacity:1;stroke:none;stroke-width:0.99999994;stroke-miterlimit:4;stroke-dasharray:0.50000005, 0.50000005;stroke-dashoffset:0;stroke-opacity:1"
       d="M 11 8 L 11 10 L 17 10 L 17 8 L 16 8 L 16 9 L 12 9 L 12 8 L 11 8 z "
       transform="matrix(0.26458333,0,0,0.26458333,0,289.59165)"
       id="rect925" />
  </g>
</svg>
